<?xml version="1.0" encoding="UTF-8" standalone="no"?>
<svg xmlns:dc="http://purl.org/dc/elements/1.1/" xmlns:cc="http://creativecommons.org/ns#" xmlns:rdf="http://www.w3.org/1999/02/22-rdf-syntax-ns#" xmlns:svg="http://www.w3.org/2000/svg" xmlns="http://www.w3.org/2000/svg" xmlns:sodipodi="http://sodipodi.sourceforge.net/DTD/sodipodi-0.dtd" xmlns:inkscape="http://www.inkscape.org/namespaces/inkscape" version="1.1" id="svg2" xml:space="preserve" width="553.29333" height="107.44" viewBox="0 0 553.29333 107.44" sodipodi:docname="CC_Uruguay_Lockup_Horizontal.eps"><metadata id="metadata8"><rdf:RDF><cc:Work rdf:about=""><dc:format>image/svg+xml</dc:format><dc:type rdf:resource="http://purl.org/dc/dcmitype/StillImage"/></cc:Work></rdf:RDF></metadata><defs id="defs6"/><sodipodi:namedview pagecolor="#ffffff" bordercolor="#666666" borderopacity="1" objecttolerance="10" gridtolerance="10" guidetolerance="10" inkscape:pageopacity="0" inkscape:pageshadow="2" inkscape:window-width="640" inkscape:window-height="480" id="namedview4"/><g id="g10" inkscape:groupmode="layer" inkscape:label="ink_ext_XXXXXX" transform="matrix(1.3333333,0,0,-1.3333333,0,107.44)"><g id="g12" transform="scale(0.1)"><path d="m 1640.21,749.902 c 0,0 -43.76,-17.539 -94.86,-73.816 -51.29,-56.445 -80.68,-119.594 -58.79,-136.281 8.47,-6.496 27.9,-7.508 63.3,24.355 27.69,24.785 55.8,57.246 74.79,103.77 22.87,55.742 15.56,81.34 15.56,81.972 m 279.53,-101.074 c -56.76,28.965 -98.29,64.492 -141.42,86.699 -41.2,21.086 -67.71,29.895 -100.99,25.43 -5.58,-0.742 -13.73,-3.484 -13.73,-3.484 0,0 17.29,-58.43 -51.06,-156.821 -69.01,-99.636 -131.56,-99.16 -149.39,-71.582 -18.67,28.868 5.38,87.832 45.51,140.317 42.16,54.773 116.1,100.32 116.1,100.32 0,0 -23.49,14.375 -81.45,-18.465 C 1486.87,719.219 1389.34,643.086 1299.2,514.59 1209.17,386.262 1191.13,315.535 1178.26,259.852 c -12.98,-55.528 -1.07,-115.25 60.53,-115.25 61.7,0 133.39,94.214 153.65,126.941 37.67,60.945 62.15,154.465 11.05,141.594 -25.33,-6.379 -45.81,-34.453 -58.58,-61.223 -13.3,-27.687 -18.55,-54.133 -18.55,-54.133 0,0 -21.37,-7.625 -50.03,-29.031 -28.63,-21.465 -47.42,-41.953 -47.42,-41.953 0,0 0.22,44.48 35.73,116.426 35.31,72.004 100.34,104.882 137.24,107.961 33.28,2.781 76.42,-25.442 39.93,-129.582 C 1405.32,217.52 1297.28,91.3789 1183.85,89.5508 1079,88.1641 1010.44,221.863 1156.15,455.027 c 161.08,258.02 350.36,337.161 411.85,346.059 61.38,8.855 81.43,-18.234 81.43,-18.234 0,0 51.41,23.82 116.65,19.367 75.22,-5.156 133.28,-58.215 209.78,-95.442 -20.06,-19.375 -39.06,-39.336 -56.12,-57.949 m 336.93,86.914 c -51.92,-33.367 -123.82,-63.625 -193.05,-57.082 -17.47,-18.086 -36.15,-38.894 -55.05,-61.863 120.09,-23.613 224.93,50.644 280.83,113.957 34.77,39.492 51.93,74.793 51.93,74.793 0,0 -33.25,-36.758 -84.66,-69.805 M 2097.23,397.844 c 1.61,2.625 2.13,5.039 2.13,5.039 0,0 -1.19,10.094 -10.93,10.515 -11.38,0.43 -26.94,-1.71 -67.72,-46.945 -40.67,-45.015 -65.34,-84.117 -86.8,-123.289 -23.4,-42.656 -32.84,-74.473 -19.31,-82.734 3.75,-2.364 9.53,-2.52 14.15,-1.446 9.01,2.305 19.33,10.782 35.09,28.914 7.41,8.481 15.46,20.547 25.23,33.965 26.94,36.75 94.74,152.641 108.16,175.981 m -424.29,-49.36 c 6.86,17.805 15.45,52.786 -2.69,66.426 -19.3,14.699 -68.79,-19.59 -68.98,-54.734 -0.23,-35.84 34.86,-52.149 43.34,-54.348 4.82,-1.394 6.44,-1.187 8.8,2.68 1.39,2.527 12.76,22.105 19.53,39.976 m -37.24,-65.398 c -1.39,0.43 -17.39,7.727 -34.01,21.555 -16.63,13.843 -25.01,29.722 -25.64,31.023 -0.64,1.184 -1.4,0.266 -2.16,-0.762 -0.64,-0.957 -3.74,-3.64 -30.03,-42.382 -26.41,-38.731 -66.86,-118.79 -30.16,-132.305 23.51,-8.633 62.56,32.351 83.81,59.668 19.74,25.324 38.31,57.512 39.37,59.875 1.08,2.246 0.1,2.84 -1.18,3.328 m 415.37,-92.293 c -9.86,-15.82 -21.13,-46.406 11.7,-27.309 39.81,23.188 96.89,109.614 96.89,109.614 h 25.77 c 0,0 -33.91,-53.762 -78.13,-102.793 -40.65,-44.961 -90.13,-85.7347 -124.9,-81.8089 -40.76,4.8555 -28.01,58.2539 -28.01,58.2539 0,0 -58.37,-62.0312 -98.61,-57.7344 -54.29,6.1133 -37.77,73.3944 -37.77,73.3944 0,0 -61.49,-75.6912 -103.33,-73.3944 -65.67,3.9727 -49.25,84.1754 -31.01,140.1954 9.77,30.047 18.99,53.766 18.99,53.766 0,0 -6.65,-1.778 -20.71,-3.766 -7.19,-1.066 -20.6,-1.816 -20.6,-1.816 0,0 -27.25,-48.34 -49.14,-77.415 -21.9,-29.128 -114.83,-129.0894 -169.65,-108.9722 -50.65,18.3402 -33.91,96.0352 -4.51,157.5152 43.04,89.817 163.96,218.911 233.7,202.004 72.22,-17.539 1.61,-149.582 1.61,-149.582 0,0 0.12,-0.425 0.76,-0.691 1.51,-0.652 5.26,-1.027 13.96,0.691 13.82,2.629 26.5,7.95 26.5,7.95 0,0 72.64,152.257 152.9,251.898 80.26,99.617 240.47,271.309 303.35,229.785 15.46,-10.137 8.48,-45.344 -12.24,-87.988 -9.22,-2.902 -18.67,-5.473 -28.41,-7.461 13.93,25.117 23.04,46.309 25.75,61.16 9.43,51.399 -110.74,-57.031 -196.58,-173.887 -85.75,-116.843 -137.27,-222.597 -137.27,-222.597 0,0 17.39,9.812 44.33,31.601 28.23,22.696 66.85,58.313 108.91,101.824 28.43,29.297 61.7,66.106 92.94,107.2 9.23,0.488 18.34,1.394 27.24,2.793 -34.77,-46.778 -71.25,-89.598 -102.36,-121.043 -34.13,-34.602 -71.14,-71.946 -103.56,-99.094 -51.17,-43.137 -90.76,-67.551 -90.76,-67.551 0,0 -75.12,-151.347 -34.35,-161.062 24.04,-5.735 71.48,67.39 71.48,67.39 0,0 61.79,94.375 99.14,136.867 50.76,57.891 94.64,91.368 138.43,91.961 25.52,0.532 40.55,-26.668 40.55,-26.668 l 11.91,18.555 h 74.03 c 0,0 -137.76,-234.133 -148.94,-251.785 m 205.6,544.949 c -51.92,-33.367 -123.82,-63.625 -193.05,-57.082 -17.47,-18.086 -36.15,-38.894 -55.05,-61.863 120.09,-23.613 224.93,50.644 280.83,113.957 34.77,39.492 51.93,74.793 51.93,74.793 0,0 -33.25,-36.758 -84.66,-69.805 M 1219.58,620.391 h -70.29 l -39.69,-64.278 h 70.27 z M 887.043,398.059 c 29.832,40.933 112.344,184.507 112.344,184.507 0,0 -1.496,10.09 -11.157,10.52 -11.375,0.477 -30.261,-3.328 -68.132,-50.652 -37.891,-47.317 -67.071,-85.09 -88.418,-124.204 -23.399,-42.761 -33.7,-72.964 -20.188,-81.074 3.656,-2.304 9.563,-2.578 14.067,-1.492 8.796,2.141 20.281,10.938 35.945,29.133 7.297,8.523 15.762,19.851 25.539,33.262 M 509.98,591.953 c -19.421,14.695 -68.789,-19.687 -69.003,-54.726 -0.313,-35.997 44.648,-46.25 50.332,-46.457 0,0 5.039,-1.407 7.082,2.902 1.277,2.629 7.285,13.945 14.168,31.758 6.75,17.863 15.437,52.84 -2.579,66.523 M 480.684,468.242 c -1.18,0.371 -19.95,5.735 -38.106,17.317 -18.125,11.699 -26.484,28.972 -27.137,30.156 -0.761,1.121 -1.398,0.269 -2.14,-0.742 -0.75,-0.981 -4.727,-6.02 -31.024,-44.758 -26.386,-38.731 -65.441,-118.137 -28.847,-131.719 23.472,-8.683 62.859,32.567 84.109,59.832 19.746,25.324 43.359,64.223 44.324,66.469 0.969,2.359 0.102,2.898 -1.179,3.445 M 1054.77,444.57 h 25.74 c 0,0 -128.877,-186.379 -201.733,-177.961 -40.886,4.668 -28.867,54.946 -28.867,54.946 0,0 -57.09,-66.965 -109.441,-53.657 -47.539,12.18 -16.848,91.372 -16.848,91.372 -5.484,-2.153 -108.484,-118.364 -180.711,-90.52 -75.644,29.238 -36.472,126.406 -22.109,155.598 12.258,24.629 25.652,48.718 25.652,48.718 0,0 -11.59,-3.332 -18.765,-4.992 -7.2,-1.668 -18.247,-3.804 -18.247,-3.804 0,0 -35.742,-58.223 -57.632,-87.297 C 430.039,347.938 337.004,248 282.168,267.898 c -54.832,19.954 -41.316,96.622 -10.527,157.512 49.914,98.899 168.371,220.254 239.621,202.18 72.105,-18.418 12.566,-135.434 12.566,-135.434 0,0 14.363,-1.812 48.699,21.633 49.477,33.738 114.719,124.641 185.434,114.004 33.25,-4.941 64.156,-39.055 21.894,-103.816 -13.539,-20.707 -36.281,-39.375 -53.769,-21.028 -10.727,11.367 -1.281,32.188 10.074,46.516 16.008,20.223 38.11,17.437 38.11,17.437 0,0 11.687,26.821 -17.922,26.34 -24.16,-0.535 -84.883,-56.601 -119.325,-113.308 -31.543,-51.996 -79.191,-140.676 -31.222,-159.946 43.887,-17.761 127.566,81.672 166.316,133.598 38.645,52.156 126.946,170.191 200.996,175.125 25.325,1.609 40.657,-21.68 40.657,-21.68 l 8.57,13.574 h 73.94 c 0,0 -139.385,-232.91 -150.335,-250.554 -8.574,-13.852 -19.949,-44.856 11.594,-27.414 31.555,17.492 97.231,101.933 97.231,101.933 M 1014.63,71.418 C 958.508,110.793 890.371,128.066 828.352,125.703 765.676,123.047 737.559,76.3086 737.559,76.3086 709.23,125.703 653.328,155.93 566.941,155.227 427.461,153.563 289.148,89.0156 179.484,89.0156 74.3086,89.0156 -2.51953,155.227 0.0585938,272.566 4.46484,478.215 178.398,663.801 308.242,747.227 c 74.793,48.125 137.344,62.285 178.242,57.726 29.817,-3.32 65.774,-37.765 43.125,-88.586 -33.261,-74.402 -79.187,-68.293 -77.468,-32.617 0.855,23.027 16.304,37.617 27.898,45.559 7.297,5.097 20.274,6.543 27.149,6.707 6.433,5.578 11.484,46.183 -42.059,32.773 C 411.57,755.383 347.09,702.91 285.703,635.039 224.324,567.273 128.828,438.828 105.215,304.004 94.1602,241.555 101.57,127.703 249.531,128.926 c 125.578,1.086 310.774,83.867 480.957,82.312 66.094,-0.535 123.606,-18.289 168.36,-46.14 44.211,-27.149 97.011,-66.6917 115.782,-93.68" style="fill:#100f0d;fill-opacity:1;fill-rule:nonzero;stroke:none" id="path14"/><path d="m 2464.8,84.4336 c -18.59,8.957 -33.03,21.7964 -43.33,38.5044 -10.29,16.718 -15.43,36.171 -15.43,58.371 V 365.02 h 40.1 V 185.723 c 0,-24.336 7.56,-43.457 22.67,-57.364 15.11,-13.906 35.36,-20.859 60.77,-20.859 25.67,0 45.99,6.953 60.97,20.859 14.98,13.907 22.47,33.028 22.47,57.364 V 365.02 h 40.11 V 181.309 c 0,-22.461 -5.08,-41.985 -15.25,-58.567 -10.17,-16.582 -24.6,-29.3514 -43.32,-38.3084 -18.72,-8.957 -40.38,-13.4375 -64.98,-13.4375 -24.61,0 -46.2,4.4805 -64.78,13.4375" style="fill:#100f0d;fill-opacity:1;fill-rule:nonzero;stroke:none" id="path16"/><path d="m 2850.87,295.625 v -36.094 c -7.49,1.602 -14.98,2.403 -22.46,2.403 -21.13,0 -38.45,-5.684 -51.95,-17.051 -13.5,-11.367 -20.26,-27.344 -20.26,-47.93 V 76.2109 h -38.5 V 294.824 h 36.5 V 260.73 c 8.03,12.833 18.92,22.258 32.69,28.286 13.77,6.011 27.74,9.019 41.92,9.019 8.28,0 15.64,-0.801 22.06,-2.41" style="fill:#100f0d;fill-opacity:1;fill-rule:nonzero;stroke:none" id="path18"/><path d="M 3090.33,294.824 V 76.2109 h -36.49 v 30.0901 c -9.1,-12.5783 -20.53,-21.6057 -34.3,-27.0822 -13.78,-5.4805 -28.15,-8.2227 -43.12,-8.2227 -17.39,0 -32.77,3.4062 -46.14,10.2344 -13.37,6.8164 -23.8,16.5039 -31.28,29.0825 -7.49,12.558 -11.24,27.277 -11.24,44.121 v 140.39 h 38.52 V 161.648 c 0,-17.117 5.01,-30.554 15.04,-40.308 10.03,-9.77 24.27,-14.641 42.71,-14.641 13.37,0 25.14,2.539 35.31,7.617 10.15,5.079 18.11,11.973 23.86,20.664 5.76,8.68 8.63,18.516 8.63,29.485 v 130.359 h 38.5" style="fill:#100f0d;fill-opacity:1;fill-rule:nonzero;stroke:none" id="path20"/><path d="m 3291.89,129.363 c 11.64,5.742 20.86,14.035 27.68,24.864 6.82,10.832 10.23,23.605 10.23,38.312 0,14.441 -3.41,27.141 -10.23,38.106 -6.82,10.964 -16.11,19.453 -27.88,25.468 -11.77,6.028 -24.74,9.032 -38.91,9.032 -14.18,0 -26.94,-3.082 -38.31,-9.227 -11.36,-6.152 -20.25,-14.707 -26.67,-25.676 -6.41,-10.965 -9.63,-23.531 -9.63,-37.703 0,-14.18 3.22,-26.672 9.63,-37.512 6.42,-10.828 15.31,-19.246 26.67,-25.261 11.37,-6.016 24.13,-9.024 38.31,-9.024 14.45,0 27.48,2.871 39.11,8.621 z m 76.02,165.461 V 96.6719 c 0,-19.5235 -4.88,-36.5664 -14.65,-51.1446 -9.75,-14.5703 -23.4,-25.8007 -40.91,-33.6914 C 3294.83,3.94531 3274.71,0 3251.98,0 c -35.04,0 -66.05,6.95313 -93.05,20.8594 l 14.43,32.4922 c 24.6,-12.8321 50.67,-19.2578 78.22,-19.2578 23.26,0 42.05,5.6796 56.36,17.0507 14.31,11.3672 21.45,26.9414 21.45,46.7266 v 24.8709 c -9.09,-11.765 -20.39,-20.855 -33.88,-27.2732 -13.51,-6.4141 -28.96,-9.629 -46.34,-9.629 -21.4,0 -40.45,4.6094 -57.16,13.8399 -16.71,9.2263 -29.68,21.9923 -38.9,38.3083 -9.23,16.309 -13.84,34.492 -13.84,54.551 0,20.059 4.61,38.313 13.84,54.758 9.22,16.441 22.19,29.344 38.9,38.699 16.71,9.363 35.76,14.043 57.16,14.043 17.92,0 33.83,-3.547 47.73,-10.625 13.91,-7.09 25.41,-17.051 34.51,-29.883 v 35.293 h 36.5" style="fill:#100f0d;fill-opacity:1;fill-rule:nonzero;stroke:none" id="path22"/><path d="M 3629.03,294.824 V 76.2109 h -36.49 v 30.0901 c -9.1,-12.5783 -20.53,-21.6057 -34.3,-27.0822 -13.78,-5.4805 -28.15,-8.2227 -43.12,-8.2227 -17.39,0 -32.77,3.4062 -46.14,10.2344 -13.36,6.8164 -23.79,16.5039 -31.27,29.0825 -7.5,12.558 -11.25,27.277 -11.25,44.121 v 140.39 h 38.52 V 161.648 c 0,-17.117 5.01,-30.554 15.04,-40.308 10.03,-9.77 24.27,-14.641 42.71,-14.641 13.37,0 25.14,2.539 35.31,7.617 10.15,5.079 18.11,11.973 23.86,20.664 5.76,8.68 8.63,18.516 8.63,29.485 v 130.359 h 38.5" style="fill:#100f0d;fill-opacity:1;fill-rule:nonzero;stroke:none" id="path24"/><path d="m 3820.17,121.941 c 15.9,11.497 24.66,29.946 26.27,55.356 h -56.96 c -49.74,0 -74.61,-12.434 -74.61,-37.309 0,-10.965 4.61,-19.59 13.84,-25.867 9.23,-6.289 21.46,-9.426 36.7,-9.426 20.6,0 38.84,5.743 54.76,17.246 z m 93.26,-12.031 V 77.8203 c -4.82,-2.1367 -11.11,-3.2109 -18.86,-3.2109 -12.03,0 -22.46,3.0664 -31.28,9.2304 -8.83,6.1407 -14.04,15.0977 -15.64,26.8752 -8.83,-12.8439 -20.8,-22.6095 -35.91,-29.2892 -15.11,-6.6797 -31.62,-10.0313 -49.53,-10.0313 -24.34,0 -44.73,5.8789 -61.17,17.6602 -16.45,11.7583 -24.67,28.3403 -24.67,49.7343 0,21.926 9.42,39.109 28.27,51.543 18.86,12.434 46.86,18.652 84.04,18.652 h 57.76 v 2.813 c 0,16.848 -5.69,29.941 -17.05,39.305 -11.36,9.359 -26.68,14.043 -45.92,14.043 -12.31,0 -24.61,-2.008 -36.91,-6.024 -12.3,-4.004 -23.01,-9.758 -32.09,-17.246 l -21.26,28.074 c 11.5,9.895 25.4,17.317 41.72,22.27 16.31,4.949 33.02,7.422 50.14,7.422 30.49,0 54.62,-7.621 72.4,-22.864 17.78,-15.246 26.67,-36.242 26.67,-62.976 v -88.254 c 0,-11.77 6.03,-17.649 18.06,-17.649 4.27,0 8.01,0.665 11.23,2.012" style="fill:#100f0d;fill-opacity:1;fill-rule:nonzero;stroke:none" id="path26"/><path d="M 4149.69,294.824 4038.97,49.3359 C 4031.76,33.293 4022.13,21.0547 4010.1,12.6367 3998.06,4.21094 3983.89,0 3967.58,0 c -7.49,0 -15.59,0.9375 -24.27,2.8125 -8.69,1.86719 -16.65,4.53906 -23.87,8.0156 l 11.23,32.0938 c 13.1,-5.8789 24.88,-8.8281 35.3,-8.8281 18.45,0 32.09,9.6289 40.91,28.8828 l 6.82,14.8437 -99.87,217.0037 h 42.92 l 76.21,-175.691 75.01,175.691 h 41.72" style="fill:#100f0d;fill-opacity:1;fill-rule:nonzero;stroke:none" id="path28"/></g></g></svg>